<svg xmlns="http://www.w3.org/2000/svg" fill="#000000" class="bi bi-arrow-down-square-fill" viewBox="0 0 240 240" id="Arrow-Down-Square-Fill--Streamline-Bootstrap" height="240" width="240"><desc>Arrow Down Square Fill Streamline Icon: https://streamlinehq.com</desc><path d="M30 0a30 30 0 0 0 -30 30v180a30 30 0 0 0 30 30h180a30 30 0 0 0 30 -30V30a30 30 0 0 0 -30 -30zm97.5 67.5v86.895l32.19 -32.205a7.5 7.5 0 0 1 10.62 10.62l-45 45a7.5 7.5 0 0 1 -10.62 0l-45 -45a7.5 7.5 0 1 1 10.62 -10.62L112.5 154.39499999999998V67.5a7.5 7.5 0 0 1 15 0" stroke-width="15"></path></svg>